<?xml version="1.0" encoding="utf-8"?>
<!-- Generator: Adobe Illustrator 22.1.0, SVG Export Plug-In . SVG Version: 6.00 Build 0)  -->
<svg version="1.1" id="Capa_1" xmlns="http://www.w3.org/2000/svg" xmlns:xlink="http://www.w3.org/1999/xlink" x="0px" y="0px"
	 viewBox="0 0 121 47" style="enable-background:new 0 0 121 47;" xml:space="preserve">
<style type="text/css">
	.st0{fill:#C1271A;}
	.st1{fill:none;}
	.st2{fill:#FFFFFF;}
</style>
<g>
	<path class="st0" d="M95.1,0.3L81,34.1h12l1.7-4.5h11.8l1.8,4.5h12.2L106.3,0.3H95.1z M97.5,21.7l3.1-8.2l3.1,8.2H97.5z"/>
	<path class="st0" d="M48.9,0.3H37.8L23.6,34.1h12l1.7-4.5h11.8l1.8,4.5h5.7V18.5L48.9,0.3z M40.2,21.7l3.1-8.2l3.1,8.2H40.2z"/>
	<path class="st1" d="M72.8,20.5c-0.1,0-0.2,0-0.4,0c0,0-2.6,0-2.6,0c0,0-0.1,0-0.1,0c-0.3,0.1-0.6,0.4-0.6,0.7
		c0,0.2,0.1,0.4,0.2,0.5c0.1,0,0.1,0.1,0.2,0.1c1.3,0.8,3.5,1.2,5.6,1.2c0.4,0,0.7,0.3,0.7,0.7c0,0.4-0.3,0.7-0.7,0.7
		c-4.4,0-7.5-1.4-8.2-3.6v0c-0.1-0.2-0.3-0.4-0.5-0.4c-0.1,0-0.1,0-0.2,0c-0.1,0-0.2,0-0.2,0c-0.4,0-0.8,0.4-0.7,0.8
		c0,0.1,0,0.2,0,0.3c0.6,3.5,3.5,6.2,7,6.3h0.3H80c0.1,0,0.2-0.1,0.2-0.1C80.1,23.8,76.8,20.5,72.8,20.5z"/>
	<path class="st0" d="M29.5,16.9c-2.5-2.3-6.6-3.5-11.7-4.5c-3.6-0.7-4.5-1.2-4.5-2.2v-0.1c0-0.8,0.8-1.4,2.4-1.4
		c3.1,0,6.9,1,10.1,3.3l5.5-7.6c-3.9-3.1-8.8-4.2-15.2-4.2C6.9,0.3,2,4.9,2,11.2v0.1c0,7.1,6.6,9.3,14.2,10.8
		c3.6,0.7,4.7,1.3,4.7,2.2v0.1c0,0.9-0.9,1.4-2.9,1.4c-3.9,0-8.1-1.2-11.8-3.9l-6,7.2c4.3,3.7,10.7,5,17.5,5c1.8,0,3.4-0.2,4.9-0.5
		l0.3-0.6L29.5,16.9z"/>
	<g>
		<g>
			<path class="st2" d="M12.9,43.7H0.1c-0.1,0-0.2-0.1-0.2-0.2c0-0.1,0.1-0.2,0.2-0.2h12.7c0.1,0,0.2,0.1,0.2,0.2
				C13.1,43.6,13,43.7,12.9,43.7z"/>
		</g>
		<g>
			<path class="st2" d="M120.5,43.7h-12.7c-0.1,0-0.2-0.1-0.2-0.2c0-0.1,0.1-0.2,0.2-0.2h12.7c0.1,0,0.2,0.1,0.2,0.2
				C120.7,43.6,120.6,43.7,120.5,43.7z"/>
		</g>
	</g>
	<g>
		<path class="st2" d="M16.1,45.6v-4.3c0-0.1,0.1-0.2,0.2-0.2h3c0.1,0,0.2,0.1,0.2,0.2c0,0.1-0.1,0.2-0.2,0.2h-2.9v1.8H19
			c0.1,0,0.2,0.1,0.2,0.2c0,0.1-0.1,0.2-0.2,0.2h-2.6v1.8h2.9c0.1,0,0.2,0.1,0.2,0.2c0,0.1-0.1,0.2-0.2,0.2h-3.1
			C16.2,45.8,16.1,45.7,16.1,45.6z"/>
		<path class="st2" d="M23.1,43.5L23.1,43.5c0-1.3,0.9-2.4,2.4-2.4c1.4,0,2.4,1.1,2.4,2.4v0c0,0.6-0.2,1.2-0.6,1.6l0.5,0.4
			c0.1,0,0.1,0.1,0.1,0.2c0,0.1-0.1,0.2-0.2,0.2c-0.1,0-0.1,0-0.1-0.1l-0.5-0.5c-0.4,0.3-0.9,0.5-1.5,0.5
			C24,45.8,23.1,44.7,23.1,43.5z M25.8,44.3c0-0.1,0.1-0.2,0.2-0.2c0.1,0,0.1,0,0.1,0.1l0.8,0.7c0.3-0.4,0.5-0.8,0.5-1.4v0
			c0-1.1-0.8-2.1-2-2.1c-1.2,0-2,0.9-2,2.1v0c0,1.1,0.8,2.1,2,2.1c0.5,0,0.9-0.2,1.2-0.4l-0.8-0.7C25.8,44.4,25.8,44.4,25.8,44.3z"
			/>
		<path class="st2" d="M31.6,43.9v-2.5c0-0.1,0.1-0.2,0.2-0.2c0.1,0,0.2,0.1,0.2,0.2v2.5c0,1.1,0.6,1.7,1.6,1.7c1,0,1.6-0.6,1.6-1.7
			v-2.5c0-0.1,0.1-0.2,0.2-0.2c0.1,0,0.2,0.1,0.2,0.2v2.5c0,1.3-0.8,2-1.9,2C32.4,45.8,31.6,45.1,31.6,43.9z"/>
		<path class="st2" d="M39.5,41.3c0-0.1,0.1-0.2,0.2-0.2c0.1,0,0.2,0.1,0.2,0.2v4.3c0,0.1-0.1,0.2-0.2,0.2c-0.1,0-0.2-0.1-0.2-0.2
			V41.3z"/>
		<path class="st2" d="M44,41.3c0-0.1,0.1-0.2,0.2-0.2h1.5c1,0,1.7,0.5,1.7,1.4v0c0,1-0.9,1.5-1.8,1.5h-1.3v1.6
			c0,0.1-0.1,0.2-0.2,0.2c-0.1,0-0.2-0.1-0.2-0.2V41.3z M45.6,43.7c0.9,0,1.5-0.4,1.5-1.1v0c0-0.7-0.6-1.1-1.4-1.1h-1.3v2.3H45.6z"
			/>
		<path class="st2" d="M50.4,45.5l2-4.3c0-0.1,0.1-0.2,0.2-0.2h0c0.1,0,0.2,0.1,0.2,0.2l2,4.2c0,0,0,0.1,0,0.1
			c0,0.1-0.1,0.2-0.2,0.2c-0.1,0-0.1-0.1-0.2-0.1L54,44.5h-2.8l-0.6,1.2c0,0.1-0.1,0.1-0.2,0.1c-0.1,0-0.2-0.1-0.2-0.1
			C50.4,45.6,50.4,45.6,50.4,45.5z M53.9,44.2l-1.2-2.7l-1.2,2.7H53.9z"/>
		<path class="st2" d="M58.7,41.3c0-0.1,0.1-0.2,0.2-0.2h0c0.1,0,0.1,0,0.2,0.1l1.8,2.6l1.8-2.6c0-0.1,0.1-0.1,0.2-0.1h0
			c0.1,0,0.2,0.1,0.2,0.2v4.3c0,0.1-0.1,0.2-0.2,0.2c-0.1,0-0.2-0.1-0.2-0.2v-3.8L61,44.2c0,0.1-0.1,0.1-0.1,0.1
			c-0.1,0-0.1,0-0.1-0.1L59,41.8v3.9c0,0.1-0.1,0.2-0.2,0.2c-0.1,0-0.2-0.1-0.2-0.2V41.3z"/>
		<path class="st2" d="M67.2,41.3c0-0.1,0.1-0.2,0.2-0.2c0.1,0,0.2,0.1,0.2,0.2v4.3c0,0.1-0.1,0.2-0.2,0.2c-0.1,0-0.2-0.1-0.2-0.2
			V41.3z"/>
		<path class="st2" d="M71.7,45.6v-4.3c0-0.1,0.1-0.2,0.2-0.2h3c0.1,0,0.2,0.1,0.2,0.2c0,0.1-0.1,0.2-0.2,0.2h-2.9v1.8h2.6
			c0.1,0,0.2,0.1,0.2,0.2c0,0.1-0.1,0.2-0.2,0.2h-2.6v1.8h2.9c0.1,0,0.2,0.1,0.2,0.2c0,0.1-0.1,0.2-0.2,0.2h-3.1
			C71.8,45.8,71.7,45.7,71.7,45.6z"/>
		<path class="st2" d="M78.9,41.3c0-0.1,0.1-0.2,0.2-0.2h0.1c0.1,0,0.1,0,0.2,0.1l3.2,3.9v-3.9c0-0.1,0.1-0.2,0.2-0.2
			c0.1,0,0.2,0.1,0.2,0.2v4.3c0,0.1-0.1,0.1-0.1,0.1h0c-0.1,0-0.1,0-0.2-0.1l-3.2-4v4c0,0.1-0.1,0.2-0.2,0.2c-0.1,0-0.2-0.1-0.2-0.2
			V41.3z"/>
		<path class="st2" d="M88.2,41.5h-1.5c-0.1,0-0.2-0.1-0.2-0.2c0-0.1,0.1-0.2,0.2-0.2H90c0.1,0,0.2,0.1,0.2,0.2
			c0,0.1-0.1,0.2-0.2,0.2h-1.5v4.1c0,0.1-0.1,0.2-0.2,0.2c-0.1,0-0.2-0.1-0.2-0.2V41.5z"/>
		<path class="st2" d="M93.3,43.5L93.3,43.5c0-1.3,0.9-2.4,2.4-2.4c1.4,0,2.4,1.1,2.4,2.4v0c0,1.3-0.9,2.4-2.4,2.4
			C94.3,45.8,93.3,44.7,93.3,43.5z M97.7,43.5L97.7,43.5c0-1.1-0.8-2.1-2-2.1c-1.2,0-2,0.9-2,2.1v0c0,1.1,0.8,2.1,2,2.1
			C96.9,45.5,97.7,44.6,97.7,43.5z"/>
		<path class="st2" d="M101.7,45.2c0,0-0.1-0.1-0.1-0.1c0-0.1,0.1-0.2,0.2-0.2c0,0,0.1,0,0.1,0c0.5,0.4,0.9,0.6,1.6,0.6
			c0.7,0,1.2-0.4,1.2-0.9v0c0-0.5-0.3-0.8-1.3-1c-1.1-0.2-1.6-0.6-1.6-1.3v0c0-0.7,0.6-1.2,1.5-1.2c0.6,0,1.1,0.2,1.5,0.5
			c0,0,0.1,0.1,0.1,0.1c0,0.1-0.1,0.2-0.2,0.2c0,0-0.1,0-0.1,0c-0.4-0.3-0.8-0.4-1.3-0.4c-0.7,0-1.1,0.4-1.1,0.9v0
			c0,0.5,0.3,0.8,1.4,1c1.1,0.2,1.5,0.6,1.5,1.3v0c0,0.7-0.7,1.3-1.6,1.3C102.8,45.8,102.2,45.6,101.7,45.2z"/>
	</g>
	<path class="st0" d="M88.2,8.9L88.2,8.9c0-2.4-0.9-4.1-2.1-5.3c-2-2-4.9-3-9.5-3H57.8v33.6h18.6c1.2,0,2.3-0.1,3.3-0.2l0.1-0.3
		l6.4-15.3c-1.1-0.8-2.4-1.4-4-1.8C85.8,15.3,88.2,12.9,88.2,8.9z M65.5,6.5h7.3h0.3c3.5,0.2,6.4,2.8,7,6.3c0,0.1,0,0.2,0,0.3
		c0,0.4-0.3,0.7-0.7,0.8c0,0-0.1,0-0.2,0c-0.1,0-0.1,0-0.2,0c-0.2,0-0.4-0.2-0.5-0.4c0,0,0,0,0,0c-0.7-2.2-3.7-3.6-8.1-3.6
		c-0.4,0-0.7,0.3-0.7,0.7c0,0.4,0.3,0.7,0.7,0.7c2.1,0,4.3,0.4,5.6,1.2c0.1,0,0.1,0.1,0.2,0.1c0.1,0.1,0.2,0.3,0.2,0.5
		c0,0.4-0.3,0.6-0.6,0.7c0,0-0.1,0-0.1,0c0,0-2.6,0-2.6,0c-0.1,0-0.2,0-0.3,0c-4,0-7.3-3.2-7.4-7.3C65.4,6.6,65.5,6.5,65.5,6.5z
		 M80,28h-7.3h-0.3c-3.5-0.2-6.4-2.9-7-6.3c0-0.1,0-0.2,0-0.3c0-0.4,0.3-0.7,0.7-0.8c0,0,0.1,0,0.2,0c0.1,0,0.1,0,0.2,0
		c0.2,0,0.4,0.2,0.5,0.4v0c0.7,2.2,3.7,3.6,8.2,3.6c0.4,0,0.7-0.3,0.7-0.7c0-0.4-0.3-0.7-0.7-0.7c-2.1,0-4.3-0.4-5.6-1.2
		c-0.1,0-0.1-0.1-0.2-0.1c-0.1-0.1-0.2-0.3-0.2-0.5c0-0.4,0.3-0.6,0.6-0.7c0,0,0.1,0,0.1,0c0,0,2.6,0,2.6,0c0.1,0,0.2,0,0.4,0
		c4,0,7.3,3.2,7.4,7.3C80.2,27.9,80.1,28,80,28z"/>
</g>
</svg>
